<svg aria-hidden="true" style="position: absolute; width: 0; height: 0; overflow: hidden;" version="1.1" xmlns="http://www.w3.org/2000/svg" xmlns:xlink="http://www.w3.org/1999/xlink">
<defs>
<symbol id="icon-Client-3" viewBox="0 0 61 32">
<path fill="#8e8f99" style="fill: var(--color1, #8e8f99)" d="M25.022 23.717c0.006 0 0.012 0.001 0.017 0.004s0.010 0.005 0.015 0.008l-0-0 0.080 0.076c-0.063 0.061-0.138 0.109-0.221 0.142l-0.005 0.002c-0.102 0.036-0.211 0.054-0.32 0.051-0.005 0-0.011 0-0.016 0-0.102 0-0.2-0.018-0.291-0.050l0.006 0.002c-0.088-0.031-0.163-0.078-0.227-0.136l0 0c-0.062-0.057-0.111-0.127-0.145-0.205l-0.002-0.004c-0.032-0.077-0.051-0.167-0.051-0.261 0-0.003 0-0.005 0-0.008v0c-0-0.003-0-0.006-0-0.009 0-0.094 0.020-0.184 0.057-0.265l-0.002 0.004c0.035-0.078 0.088-0.149 0.155-0.209 0.068-0.058 0.148-0.105 0.236-0.135l0.005-0.002c0.090-0.030 0.193-0.048 0.3-0.048 0.004 0 0.007 0 0.011 0h-0.001c0.098-0.002 0.196 0.013 0.288 0.044 0.080 0.030 0.153 0.071 0.216 0.121l-0.067 0.081c-0.005 0.006-0.010 0.011-0.017 0.014l-0 0c-0.007 0.004-0.015 0.006-0.023 0.006-0.001 0-0.003-0-0.004-0h0c-0.011-0.001-0.021-0.004-0.029-0.009l0 0-0.036-0.021-0.050-0.027c-0.046-0.022-0.099-0.039-0.155-0.048l-0.003-0c-0.033-0.005-0.071-0.008-0.11-0.008-0.004 0-0.007 0-0.011 0h0.001c-0.002-0-0.005-0-0.008-0-0.077 0-0.151 0.013-0.22 0.037l0.005-0.001c-0.067 0.023-0.126 0.058-0.175 0.102l0.001-0c-0.050 0.047-0.089 0.102-0.113 0.161-0.026 0.061-0.041 0.131-0.041 0.206 0 0.003 0 0.005 0 0.007v-0c-0 0.002-0 0.005-0 0.008 0 0.075 0.015 0.146 0.043 0.211l-0.001-0.004c0.052 0.123 0.151 0.217 0.275 0.259l0.003 0.001c0.065 0.023 0.136 0.035 0.207 0.034 0.041 0.001 0.082-0.002 0.123-0.007 0.102-0.010 0.193-0.050 0.266-0.111l-0.001 0.001c0.010-0.008 0.024-0.013 0.038-0.014h0zM27.34 23.338c0.001 0.091-0.017 0.182-0.054 0.267-0.036 0.082-0.087 0.151-0.151 0.207l-0.001 0.001c-0.067 0.059-0.148 0.105-0.237 0.136-0.091 0.030-0.196 0.048-0.305 0.048s-0.214-0.018-0.312-0.050l0.007 0.002c-0.091-0.032-0.17-0.078-0.237-0.137l0.001 0.001c-0.064-0.057-0.116-0.127-0.151-0.205l-0.002-0.004c-0.034-0.079-0.054-0.171-0.054-0.267s0.020-0.188 0.056-0.272l-0.002 0.004c0.035-0.078 0.086-0.149 0.153-0.21 0.067-0.057 0.148-0.102 0.236-0.131 0.196-0.065 0.414-0.065 0.61 0 0.089 0.031 0.17 0.077 0.237 0.136 0.127 0.113 0.206 0.277 0.206 0.459 0 0.006-0 0.011-0 0.017l0-0.001zM27.129 23.338c0.002-0.073-0.011-0.145-0.038-0.215-0.049-0.125-0.149-0.22-0.274-0.261l-0.003-0.001c-0.066-0.022-0.143-0.035-0.222-0.035s-0.156 0.013-0.227 0.037l0.005-0.001c-0.066 0.023-0.123 0.058-0.17 0.102l0-0c-0.047 0.044-0.084 0.097-0.107 0.157l-0.001 0.003c-0.051 0.14-0.051 0.289 0 0.429 0.023 0.059 0.060 0.114 0.108 0.16 0.047 0.044 0.105 0.078 0.17 0.1 0.143 0.046 0.3 0.046 0.444 0 0.064-0.022 0.123-0.056 0.169-0.1 0.048-0.047 0.085-0.101 0.108-0.16 0.027-0.069 0.040-0.142 0.038-0.215zM28.923 23.563l0.021 0.048c0.008-0.017 0.015-0.033 0.023-0.048 0.008-0.016 0.016-0.032 0.026-0.047l0.513-0.796c0.010-0.014 0.019-0.023 0.029-0.025s0.022-0.004 0.034-0.004c0.003 0 0.006 0 0.008 0l-0-0h0.152v1.296h-0.18v-0.993c-0-0.007-0.001-0.015-0.001-0.022s0-0.016 0.001-0.023l-0 0.001-0.516 0.808c-0.007 0.013-0.017 0.023-0.030 0.029l-0 0c-0.013 0.007-0.027 0.011-0.043 0.011-0 0-0 0-0.001 0h-0.029c-0 0-0.001 0-0.001 0-0.016 0-0.031-0.004-0.044-0.011l0 0c-0.013-0.007-0.023-0.017-0.030-0.029l-0-0-0.531-0.813v1.040h-0.174v-1.293h0.152c0.002-0 0.004-0 0.006-0 0.013 0 0.025 0.002 0.036 0.005l-0.001-0c0.012 0.005 0.022 0.014 0.028 0.024l0 0 0.524 0.797c0.011 0.015 0.019 0.030 0.027 0.047zM30.853 23.499v0.485h-0.201v-1.294h0.447c0.085-0.001 0.169 0.008 0.25 0.028 0.065 0.016 0.125 0.043 0.177 0.080 0.043 0.033 0.077 0.076 0.099 0.125l0.001 0.002c0.024 0.053 0.035 0.109 0.034 0.165 0 0.002 0 0.004 0 0.006 0 0.118-0.057 0.223-0.145 0.288l-0.001 0.001c-0.051 0.038-0.11 0.068-0.175 0.085l-0.004 0.001c-0.078 0.021-0.16 0.031-0.241 0.030l-0.243-0.004zM30.853 23.36h0.243c0.053 0 0.105-0.006 0.155-0.020 0.043-0.012 0.081-0.031 0.114-0.056l-0.001 0.001c0.056-0.045 0.092-0.114 0.092-0.192 0-0.001 0-0.002-0-0.003v0c0-0.004 0-0.009 0-0.013 0-0.034-0.008-0.065-0.021-0.094l0.001 0.001c-0.017-0.035-0.041-0.065-0.070-0.088l-0-0c-0.067-0.044-0.15-0.071-0.238-0.071-0.011 0-0.022 0-0.033 0.001l0.001-0h-0.243v0.533zM33.551 23.986h-0.159c-0.001 0-0.002 0-0.003 0-0.015 0-0.030-0.005-0.041-0.012l0 0c-0.011-0.008-0.020-0.018-0.026-0.029l-0-0-0.136-0.313h-0.686l-0.141 0.313c-0.006 0.012-0.014 0.022-0.025 0.029l-0 0c-0.012 0.008-0.027 0.013-0.043 0.013-0.001 0-0.002 0-0.002-0h-0.158l0.602-1.296h0.209l0.61 1.296zM32.557 23.505h0.566l-0.239-0.527c-0.016-0.034-0.032-0.074-0.044-0.116l-0.002-0.006-0.023 0.068c-0.007 0.021-0.015 0.039-0.022 0.055l-0.237 0.527zM34.418 22.696c0.012 0.006 0.022 0.014 0.030 0.023l0 0 0.879 0.977v-1.006h0.18v1.296h-0.1c-0.001 0-0.003 0-0.004 0-0.014 0-0.026-0.003-0.038-0.008l0.001 0c-0.012-0.006-0.023-0.015-0.032-0.024l-0-0-0.877-0.976c0 0.007 0.001 0.015 0.001 0.022s-0 0.016-0.001 0.023l0-0.001v0.963h-0.18v-1.296h0.106c0.012-0 0.025 0.001 0.036 0.006zM36.985 23.471v0.515h-0.201v-0.515l-0.555-0.78h0.18c0.001-0 0.003-0 0.005-0 0.014 0 0.028 0.004 0.039 0.011l-0-0c0.011 0.008 0.020 0.018 0.027 0.029l0.347 0.504c0.023 0.033 0.043 0.071 0.060 0.111l0.002 0.004 0.026-0.056c0.010-0.020 0.021-0.040 0.034-0.059l0.343-0.507c0.007-0.011 0.016-0.020 0.026-0.027l0-0c0.011-0.008 0.025-0.013 0.040-0.013 0.001 0 0.002 0 0.003 0h0.182l-0.556 0.784zM28.823 20.515c0.087 0.009 0.176 0.017 0.265 0.024 1.354-0.517 2.5-1.365 3.294-2.436s1.201-2.318 1.169-3.585l-1.492-1.275c0.303 1.349 0.161 2.744-0.41 4.029s-1.55 2.407-2.826 3.244z"></path>
<path fill="#8e8f99" style="fill: var(--color1, #8e8f99)" d="M28.29 20.456l0.040 0.007c1.364-0.833 2.404-1.997 2.985-3.341s0.677-2.805 0.276-4.196l-2.126-1.816c0.86 1.493 1.206 3.164 0.998 4.818s-0.961 3.225-2.173 4.528zM35.5 16.015c-0.361 1.393-1.239 2.649-2.501 3.582-0.344 0.258-0.733 0.5-1.143 0.708l-0.045 0.021c1.028-0.258 1.974-0.715 2.763-1.335s1.401-1.386 1.789-2.24l-0.862-0.736z"></path>
<path fill="#8e8f99" style="fill: var(--color1, #8e8f99)" d="M35.162 15.81l-1.228-1.049c-0.024 1.196-0.421 2.364-1.152 3.384s-1.768 1.854-3.004 2.416h0.006c0.275 0 0.551-0.014 0.824-0.042 1.155-0.403 2.175-1.044 2.97-1.865s1.339-1.799 1.584-2.844zM28.468 10.344l-1.464-1.253c-1.309 0.432-2.435 1.192-3.231 2.18s-1.223 2.159-1.227 3.357c0.005 1.325 0.527 2.611 1.484 3.654s2.293 1.784 3.797 2.105c1.343-1.399 2.13-3.126 2.245-4.932s-0.447-3.596-1.604-5.111zM38.545 15.617c-0.005-1.572-0.739-3.079-2.040-4.19s-3.064-1.738-4.904-1.743c-0.005 0-0.010 0-0.016 0-0.883 0-1.733 0.145-2.526 0.412l0.056-0.016 8.967 7.661c0.292-0.623 0.463-1.353 0.464-2.123v-0z"></path>
</symbol>
<symbol id="icon-Client-2" viewBox="0 0 61 32">
<path fill="#8e8f99" style="fill: var(--color1, #8e8f99)" d="M29.86 7.976h-0.050c-0.063-0.004-0.143-0.007-0.223-0.008l-0.006-0h-0.165c-0.144 0-0.292 0.004-0.438 0.011-0.005-0-0.011-0.001-0.017-0.001s-0.012 0-0.017 0.001l0.001-0c-1.404 0.082-2.707 0.433-3.885 1.002l0.061-0.027-0.157 0.076v8.052l0.368-0.125c0.323-0.111 0.667-0.211 1.023-0.303 0.88-0.235 1.892-0.377 2.935-0.391l0.008-0v1.058c-0.132 0.001-0.259 0.004-0.387 0.011h-0.031c-0.827 0.046-1.601 0.171-2.347 0.366l0.082-0.018c-1.025 0.261-1.923 0.621-2.757 1.082l0.059-0.030v-10.326c0.815-0.484 1.758-0.879 2.756-1.135l0.075-0.016c0.8-0.215 1.718-0.34 2.665-0.344h0.158c0.186 0.005 0.367 0.013 0.537 0.026 0.448 0.032 0.893 0.103 1.329 0.212v1.041c-0.371-0.091-0.811-0.16-1.261-0.193l-0.027-0.002-0.027-0.002c-0.077-0.008-0.168-0.014-0.26-0.016l-0.003-0zM31.692 9.040c0.231 0.018 0.47 0.026 0.712 0.026 0.998-0.004 1.964-0.135 2.885-0.378l-0.080 0.018c1.025-0.261 1.922-0.622 2.757-1.082l-0.060 0.030v10.142c-0.815 0.484-1.758 0.879-2.756 1.135l-0.075 0.016c-0.8 0.214-1.718 0.339-2.666 0.343h-0.002c-0.019 0-0.042 0-0.066 0-0.695 0-1.37-0.087-2.014-0.251l0.056 0.012v-10.208c0.156 0.036 0.317 0.069 0.481 0.097 0.269 0.045 0.552 0.079 0.828 0.099zM36.853 9.119l-0.368 0.124c-0.338 0.114-0.68 0.216-1.023 0.306-0.916 0.245-1.969 0.388-3.054 0.392h-0.002c-0.24 0-0.461-0.007-0.674-0.020l-0.293-0.019v8.283l0.252 0.022c0.233 0.021 0.475 0.031 0.717 0.031 0.857-0.004 1.686-0.117 2.476-0.327l-0.068 0.015c0.722-0.183 1.348-0.415 1.941-0.703l-0.060 0.026 0.157-0.076v-8.054z"></path>
<path fill="#8e8f99" style="fill: var(--color1, #8e8f99)" d="M24.632 22.259c-0.099-0.102-0.237-0.166-0.39-0.166-0.007 0-0.013 0-0.020 0l0.001-0c-0.002-0-0.005-0-0.008-0-0.082 0-0.161 0.016-0.232 0.046l0.004-0.001c-0.14 0.056-0.248 0.166-0.301 0.303l-0.001 0.004c-0.029 0.073-0.043 0.15-0.042 0.228v1.38c-0.004 0.097 0.015 0.194 0.054 0.283 0.033 0.071 0.080 0.134 0.138 0.185 0.055 0.046 0.12 0.080 0.189 0.098 0.067 0.019 0.137 0.028 0.206 0.028 0.077 0.001 0.153-0.016 0.223-0.048 0.207-0.092 0.349-0.296 0.349-0.533v-0.154h-0.361v0.123c0 0.003 0 0.005 0 0.008 0 0.041-0.008 0.081-0.022 0.117l0.001-0.002c-0.012 0.030-0.030 0.056-0.052 0.078l-0 0c-0.041 0.032-0.094 0.052-0.151 0.053h-0c-0.006 0.001-0.014 0.001-0.021 0.001-0.061 0-0.114-0.029-0.148-0.075l-0-0c-0.030-0.049-0.048-0.108-0.048-0.171 0-0.005 0-0.010 0-0.015l-0 0.001v-1.287c-0.002-0.071 0.013-0.142 0.044-0.206 0.033-0.051 0.090-0.085 0.155-0.085 0.008 0 0.015 0 0.022 0.001l-0.001-0c0.002-0 0.004-0 0.007-0 0.063 0 0.119 0.030 0.154 0.077l0 0c0.037 0.049 0.060 0.11 0.060 0.177 0 0.003-0 0.005-0 0.008v-0 0.119h0.357v-0.141c0-0.002 0-0.004 0-0.006 0-0.085-0.016-0.166-0.046-0.24l0.002 0.004c-0.028-0.075-0.069-0.14-0.121-0.194l0 0zM26.774 22.244c-0.11-0.094-0.253-0.151-0.41-0.152h-0c-0.073 0-0.147 0.013-0.215 0.039-0.149 0.053-0.266 0.163-0.329 0.302l-0.001 0.004c-0.036 0.084-0.055 0.175-0.053 0.267v1.323c-0.002 0.093 0.016 0.185 0.053 0.271 0.033 0.071 0.080 0.134 0.14 0.185 0.055 0.051 0.12 0.091 0.191 0.116 0.069 0.025 0.142 0.039 0.215 0.039 0.158-0 0.301-0.059 0.411-0.156l-0.001 0.001c0.057-0.052 0.104-0.115 0.136-0.185 0.037-0.085 0.055-0.178 0.052-0.271v-1.323c0-0.004 0-0.008 0-0.012 0-0.092-0.019-0.18-0.054-0.259l0.002 0.004c-0.034-0.076-0.079-0.14-0.136-0.193l-0-0zM26.606 24.027c0.001 0.006 0.001 0.013 0.001 0.020 0 0.067-0.028 0.128-0.072 0.171l-0 0c-0.046 0.038-0.105 0.062-0.17 0.062s-0.124-0.023-0.17-0.062l0 0c-0.045-0.043-0.073-0.104-0.073-0.17 0-0.007 0-0.015 0.001-0.022l-0 0.001v-1.323c-0.001-0.006-0.001-0.013-0.001-0.020 0-0.067 0.028-0.128 0.072-0.171l0-0c0.046-0.038 0.105-0.062 0.17-0.062s0.124 0.023 0.17 0.062l-0-0c0.045 0.043 0.073 0.104 0.073 0.171 0 0.007-0 0.014-0.001 0.021l0-0.001v1.324zM29.588 24.618v-2.505h-0.347l-0.456 1.326h-0.006l-0.459-1.326h-0.343v2.505h0.358v-1.524h0.006l0.351 1.077h0.179l0.353-1.077h0.007v1.524h0.358zM31.621 22.289c-0.055-0.062-0.125-0.109-0.202-0.137-0.073-0.025-0.158-0.039-0.246-0.039-0.005 0-0.010 0-0.014 0h-0.531v2.505h0.357v-0.979h0.184c0.112 0.005 0.222-0.019 0.322-0.068 0.082-0.046 0.148-0.111 0.195-0.189l0.001-0.002c0.041-0.067 0.069-0.141 0.082-0.218 0.012-0.079 0.019-0.17 0.019-0.262 0-0.008-0-0.016-0-0.024v0.001c0.004-0.12-0.008-0.241-0.035-0.358-0.025-0.090-0.071-0.168-0.132-0.23l0 0zM31.437 23.052c-0.002 0.048-0.014 0.093-0.034 0.132l0.001-0.002c-0.021 0.038-0.052 0.069-0.091 0.087l-0.001 0.001c-0.044 0.020-0.096 0.032-0.15 0.032-0.006 0-0.013-0-0.019-0l0.001 0h-0.163v-0.852h0.184c0.005-0 0.011-0 0.017-0 0.052 0 0.102 0.012 0.146 0.033l-0.002-0.001c0.037 0.021 0.066 0.053 0.083 0.091l0.001 0.001c0.020 0.044 0.030 0.092 0.031 0.14v0.167c0 0.058 0.004 0.119 0 0.172h-0.004zM33.312 22.113h-0.293l-0.552 2.505h0.357l0.105-0.538h0.487l0.105 0.538h0.357l-0.565-2.505zM32.983 23.739l0.176-0.908h0.007l0.175 0.908h-0.357zM35.618 23.622h-0.007l-0.539-1.509h-0.343v2.505h0.357v-1.507h0.007l0.545 1.506h0.336v-2.505h-0.357v1.509zM37.799 22.113l-0.287 0.996h-0.007l-0.287-0.996h-0.378l0.49 1.447v1.059h0.357v-1.059l0.49-1.446h-0.378zM23.636 25.325h0.172v0.483h0.117v-0.483h0.171v-0.099h-0.46v0.099zM25.083 25.226l-0.225 0.582h0.124l0.048-0.132h0.232l0.049 0.132h0.127l-0.231-0.582h-0.124zM25.064 25.578l0.079-0.216 0.079 0.216h-0.158zM26.512 25.593h0.135v0.075c-0.038 0.030-0.086 0.049-0.138 0.049h-0c-0.003 0-0.005 0-0.008 0-0.047 0-0.088-0.022-0.115-0.056l-0-0c-0.027-0.039-0.043-0.087-0.043-0.139 0-0.005 0-0.009 0-0.014l-0 0.001c0-0.129 0.056-0.194 0.167-0.194 0.004-0 0.008-0.001 0.013-0.001 0.057 0 0.105 0.039 0.119 0.093l0 0.001 0.115-0.022c-0.025-0.114-0.107-0.171-0.247-0.171-0.002-0-0.005-0-0.008-0-0.075 0-0.144 0.028-0.195 0.075l0-0c-0.052 0.051-0.084 0.123-0.084 0.202 0 0.008 0 0.015 0.001 0.023l-0-0.001c-0 0.004-0 0.009-0 0.014 0 0.078 0.028 0.15 0.075 0.205l-0-0c0.051 0.053 0.123 0.086 0.203 0.086 0.006 0 0.013-0 0.019-0.001l-0.001 0c0.003 0 0.006 0 0.010 0 0.091 0 0.175-0.035 0.237-0.093l-0 0v-0.229h-0.252v0.098zM27.972 25.226h-0.118v0.582h0.407v-0.099h-0.289v-0.483zM29.206 25.226h-0.117v0.582h0.117v-0.582zM30.413 25.615l-0.238-0.388h-0.114v0.582h0.109v-0.38l0.234 0.38h0.117v-0.582h-0.108v0.389zM31.504 25.552h0.29v-0.099h-0.29v-0.127h0.312v-0.099h-0.429v0.582h0.441v-0.099h-0.324v-0.157zM34.15 25.456h-0.229v-0.229h-0.116v0.581h0.116v-0.255h0.229v0.255h0.117v-0.582h-0.117v0.229zM35.247 25.552h0.291v-0.099h-0.291v-0.127h0.313v-0.099h-0.429v0.582h0.441v-0.099h-0.324v-0.157zM36.736 25.552c0.101-0.016 0.153-0.069 0.153-0.162 0.001-0.005 0.001-0.011 0.001-0.017 0-0.046-0.023-0.087-0.058-0.112l-0-0c-0.043-0.022-0.094-0.035-0.147-0.035-0.008 0-0.016 0-0.024 0.001l0.001-0h-0.247v0.581h0.117v-0.243h0.023c0.003-0 0.006-0 0.009-0 0.023 0 0.045 0.005 0.064 0.014l-0.001-0c0.017 0.011 0.031 0.025 0.041 0.043l0.127 0.185h0.14l-0.071-0.113c-0.032-0.057-0.075-0.104-0.127-0.139l-0.001-0.001zM36.618 25.471h-0.086v-0.146h0.092c0.007-0.001 0.016-0.001 0.025-0.001 0.034 0 0.066 0.005 0.096 0.015l-0.002-0.001c0.016 0.014 0.025 0.035 0.025 0.057 0 0.013-0.003 0.025-0.009 0.036l0-0c-0.006 0.010-0.013 0.019-0.022 0.025l-0 0c-0.029 0.009-0.063 0.015-0.097 0.015-0.008 0-0.015-0-0.023-0.001l0.001 0zM37.858 25.552h0.289v-0.099h-0.289v-0.127h0.313v-0.099h-0.431v0.582h0.441v-0.099h-0.324v-0.157z"></path>
</symbol>
<symbol id="icon-Client-1" viewBox="0 0 61 32">
<path fill="#8e8f99" style="fill: var(--color1, #8e8f99)" d="M25.455 8.364l2.548 2.428-4.73-0.002v11.778h12.364v-4.503l2.545 2.425v-12.125h-12.727zM35.524 17.779l-7.225-6.884h7.225v6.884zM33.281 20.844h-8.052v-7.921h0.569v7.385h7.483v0.537zM26.835 24.75l-0.3-0.617h-0.248l0.435 0.817v0.476h0.224v-0.476l0.435-0.817h-0.247l-0.3 0.617zM27.941 24.132h0.053l0.488 1.293h-0.234l-0.105-0.303h-0.5l-0.104 0.303h-0.233l0.487-1.293h0.149zM27.704 24.946h0.379l-0.189-0.548-0.189 0.548zM29.266 24.731c-0.004-0.005-0.013-0.016-0.022-0.028l-0.006-0.008c-0.029-0.037-0.055-0.078-0.076-0.123l-0.002-0.004c-0.017-0.038-0.027-0.081-0.027-0.128 0-0 0-0 0-0v0c0-0.067 0.014-0.125 0.041-0.174s0.068-0.087 0.117-0.111l0.002-0.001c0.051-0.027 0.111-0.040 0.178-0.040 0.066 0 0.123 0.013 0.17 0.040 0.090 0.047 0.15 0.14 0.15 0.247 0 0.040-0.008 0.078-0.024 0.112l0.001-0.002c-0.016 0.036-0.037 0.066-0.062 0.093l0-0c-0.027 0.029-0.057 0.055-0.088 0.078l-0.002 0.001-0.090 0.065 0.256 0.302c0.035-0.068 0.056-0.147 0.056-0.232 0-0.003-0-0.006-0-0.010v0h0.185c0 0.063-0.006 0.122-0.019 0.178-0.017 0.081-0.050 0.153-0.096 0.215l0.001-0.002 0.189 0.224h-0.247l-0.075-0.088c-0.038 0.029-0.082 0.054-0.129 0.072l-0.003 0.001c-0.058 0.021-0.126 0.033-0.196 0.033-0.002 0-0.003 0-0.005-0h0c-0.086 0-0.16-0.016-0.223-0.047-0.060-0.029-0.11-0.074-0.145-0.128l-0.001-0.001c-0.032-0.052-0.051-0.115-0.051-0.183 0-0.002 0-0.004 0-0.006v0c0-0.053 0.011-0.099 0.033-0.138 0.022-0.040 0.052-0.078 0.090-0.112 0.035-0.032 0.075-0.064 0.12-0.095zM29.372 24.861l-0.027 0.019c-0.027 0.021-0.050 0.045-0.069 0.073l-0.001 0.001c-0.023 0.034-0.036 0.075-0.036 0.12 0 0.036 0.009 0.070 0.025 0.1l-0.001-0.001c0.017 0.031 0.041 0.056 0.071 0.073l0.001 0c0.032 0.017 0.069 0.027 0.109 0.027 0.003 0 0.005-0 0.008-0h-0c0.049 0 0.097-0.011 0.143-0.033 0.025-0.012 0.046-0.026 0.066-0.041l-0.001 0.001-0.287-0.338zM29.423 24.625l0.079-0.053c0.032-0.019 0.058-0.044 0.079-0.072l0.001-0.001c0.015-0.024 0.024-0.053 0.024-0.085 0-0.002-0-0.004-0-0.006v0c-0.002-0.069-0.059-0.125-0.129-0.125-0.003 0-0.005 0-0.008 0l0-0c-0.001-0-0.002-0-0.004-0-0.053 0-0.098 0.031-0.119 0.076l-0 0.001c-0.010 0.022-0.015 0.047-0.015 0.073 0 0.031 0.008 0.060 0.021 0.086l-0-0.001c0.013 0.028 0.032 0.057 0.056 0.088l0.015 0.019zM31.685 25.004h-0.222c-0.005 0.053-0.020 0.101-0.042 0.145l0.001-0.002c-0.020 0.038-0.051 0.069-0.089 0.087l-0.001 0.001c-0.041 0.019-0.089 0.030-0.14 0.030-0.005 0-0.010-0-0.014-0l0.001 0c-0.002 0-0.005 0-0.007 0-0.046 0-0.090-0.012-0.128-0.032l0.001 0.001c-0.038-0.022-0.069-0.051-0.092-0.087l-0.001-0.001c-0.024-0.039-0.042-0.084-0.053-0.133l-0-0.003c-0.011-0.051-0.017-0.11-0.017-0.171 0-0.002 0-0.005 0-0.007v0-0.109c0-0.069 0.006-0.13 0.019-0.183s0.032-0.099 0.057-0.136c0.024-0.035 0.056-0.064 0.093-0.083l0.001-0.001c0.037-0.018 0.080-0.028 0.126-0.028 0.003 0 0.005 0 0.008 0h-0c0.062 0 0.112 0.011 0.151 0.032s0.067 0.051 0.087 0.091c0.020 0.039 0.033 0.087 0.039 0.143h0.222c-0.008-0.086-0.034-0.164-0.074-0.232l0.001 0.003c-0.040-0.067-0.096-0.121-0.163-0.156l-0.002-0.001c-0.071-0.036-0.155-0.057-0.244-0.057-0.006 0-0.012 0-0.018 0l0.001-0c-0.081 0-0.154 0.014-0.219 0.043s-0.12 0.069-0.166 0.124c-0.046 0.054-0.083 0.118-0.105 0.188l-0.001 0.004c-0.024 0.075-0.036 0.159-0.036 0.252v0.108c0 0.093 0.012 0.177 0.036 0.252s0.059 0.139 0.105 0.193c0.045 0.053 0.1 0.093 0.164 0.123s0.136 0.043 0.216 0.043c0.104 0 0.193-0.019 0.265-0.057s0.129-0.090 0.169-0.156c0.040-0.066 0.064-0.142 0.071-0.226zM32.918 24.814v-0.071c0-0.098-0.013-0.185-0.039-0.262-0.024-0.076-0.062-0.142-0.11-0.199l0.001 0.001c-0.046-0.053-0.102-0.096-0.167-0.124l-0.003-0.001c-0.065-0.029-0.138-0.044-0.218-0.044s-0.152 0.015-0.217 0.044c-0.065 0.028-0.122 0.070-0.17 0.125s-0.084 0.121-0.11 0.198c-0.025 0.075-0.039 0.161-0.039 0.25 0 0.004 0 0.008 0 0.012v-0.001 0.071c0 0.098 0.013 0.185 0.039 0.263 0.026 0.076 0.064 0.142 0.112 0.199l-0.001-0.001c0.048 0.055 0.105 0.096 0.17 0.125s0.138 0.043 0.217 0.043c0.080 0 0.153-0.015 0.218-0.043 0.065-0.029 0.122-0.071 0.169-0.125s0.084-0.12 0.109-0.198c0.025-0.077 0.038-0.165 0.038-0.263zM32.695 24.741v0.073c0 0.072-0.007 0.136-0.021 0.192-0.012 0.054-0.033 0.101-0.061 0.143l0.001-0.002c-0.025 0.036-0.058 0.065-0.096 0.085l-0.001 0.001c-0.037 0.018-0.081 0.028-0.126 0.028-0.002 0-0.004-0-0.006-0h0c-0.002 0-0.004 0-0.006 0-0.046 0-0.089-0.010-0.128-0.029l0.002 0.001c-0.040-0.021-0.073-0.050-0.099-0.085l-0.001-0.001c-0.028-0.040-0.049-0.087-0.062-0.138l-0.001-0.003c-0.014-0.055-0.022-0.117-0.022-0.182 0-0.004 0-0.007 0-0.011v0.001-0.073c0-0.072 0.007-0.136 0.021-0.191s0.035-0.102 0.061-0.139c0.025-0.036 0.058-0.065 0.097-0.084l0.002-0.001c0.037-0.019 0.080-0.029 0.127-0.029 0.002 0 0.004 0 0.005 0h-0c0.049 0 0.093 0.010 0.132 0.029s0.072 0.047 0.098 0.085c0.027 0.037 0.048 0.084 0.061 0.139 0.015 0.055 0.021 0.119 0.021 0.191z"></path>
</symbol>
<symbol id="icon-Client-6" viewBox="0 0 61 32">
<path fill="#8e8f99" style="fill: var(--color1, #8e8f99)" d="M31.102 15.797c-0.139-0.179-0.223-0.407-0.223-0.655 0-0.024 0.001-0.049 0.002-0.073l-0 0.003v-1.050c0-0.322 0.073-0.567 0.219-0.734s0.397-0.251 0.753-0.25c0.335 0 0.572 0.071 0.712 0.214 0.153 0.182 0.227 0.404 0.21 0.628v0.247h-0.598v-0.25c0.002-0.082-0.004-0.164-0.017-0.245-0.010-0.059-0.041-0.11-0.085-0.145l-0-0c-0.054-0.036-0.12-0.057-0.191-0.057-0.009 0-0.018 0-0.027 0.001l0.001-0c-0.008-0.001-0.017-0.001-0.026-0.001-0.075 0-0.145 0.023-0.203 0.061l0.001-0.001c-0.049 0.040-0.085 0.095-0.099 0.158l-0 0.002c-0.015 0.072-0.024 0.155-0.024 0.239 0 0.007 0 0.014 0 0.022v-0.001 1.275c-0.001 0.014-0.002 0.031-0.002 0.048 0 0.114 0.029 0.22 0.080 0.313l-0.002-0.003c0.031 0.038 0.071 0.068 0.117 0.086l0.002 0.001c0.048 0.019 0.102 0.025 0.155 0.020 0.076 0.005 0.153-0.015 0.212-0.058 0.046-0.039 0.078-0.092 0.089-0.153l0-0.002c0.014-0.084 0.020-0.17 0.019-0.255v-0.259h0.598v0.236c0.001 0.019 0.002 0.040 0.002 0.062 0 0.227-0.079 0.435-0.21 0.6l0.001-0.002c-0.137 0.156-0.371 0.234-0.716 0.234s-0.604-0.083-0.752-0.256zM33.591 15.808c-0.151-0.164-0.227-0.402-0.227-0.717v-1.105c0-0.312 0.076-0.548 0.227-0.708s0.404-0.24 0.758-0.239c0.352 0 0.603 0.080 0.754 0.239 0.151 0.16 0.228 0.396 0.228 0.708v1.105c0 0.312-0.077 0.551-0.23 0.716s-0.404 0.247-0.752 0.247-0.605-0.083-0.758-0.245zM34.628 15.543c0.054-0.103 0.079-0.215 0.072-0.327v-1.353c0.001-0.011 0.001-0.023 0.001-0.035 0-0.104-0.027-0.203-0.074-0.288l0.002 0.003c-0.032-0.039-0.073-0.070-0.12-0.088l-0.002-0.001c-0.035-0.014-0.075-0.021-0.117-0.021-0.014 0-0.029 0.001-0.042 0.003l0.002-0c-0.012-0.002-0.026-0.002-0.041-0.002-0.042 0-0.083 0.008-0.12 0.022l0.002-0.001c-0.049 0.019-0.091 0.049-0.123 0.088l-0 0.001c-0.055 0.1-0.079 0.21-0.072 0.321v1.359c-0.008 0.112 0.017 0.224 0.072 0.327 0.035 0.034 0.078 0.062 0.126 0.081 0.046 0.018 0.098 0.029 0.154 0.029s0.108-0.011 0.157-0.030l-0.003 0.001c0.048-0.019 0.091-0.047 0.126-0.081v-0.007zM36.050 13.071h0.644l0.484 2.038 0.495-2.038h0.627l0.063 2.942h-0.463l-0.049-2.044-0.478 2.044h-0.371l-0.495-2.052-0.046 2.052h-0.468l0.058-2.942zM39.085 13.071h1.003c0.577 0 0.867 0.279 0.867 0.835 0 0.533-0.304 0.8-0.912 0.799h-0.342v1.307h-0.619l0.004-2.942zM39.941 14.329c0.061 0.007 0.123 0.002 0.182-0.015s0.113-0.043 0.158-0.079c0.071-0.099 0.102-0.216 0.089-0.332 0-0.010 0.001-0.022 0.001-0.034 0-0.083-0.011-0.163-0.032-0.24l0.001 0.006c-0.010-0.031-0.026-0.058-0.046-0.081l0 0c-0.022-0.024-0.048-0.044-0.077-0.059l-0.001-0.001c-0.072-0.030-0.155-0.048-0.243-0.048-0.012 0-0.023 0-0.035 0.001l0.002-0h-0.24v0.879h0.24zM41.847 13.071h0.665l0.682 2.942h-0.577l-0.135-0.678h-0.593l-0.139 0.678h-0.585l0.682-2.942zM42.415 14.994l-0.231-1.235-0.232 1.235h0.463zM43.745 13.071h0.433l0.829 1.678v-1.678h0.514v2.942h-0.412l-0.835-1.752v1.752h-0.531l0.001-2.942zM46.725 14.892l-0.689-1.816h0.581l0.421 1.167 0.395-1.167h0.568l-0.681 1.816v1.121h-0.594v-1.121zM32.057 17.3v0.154h-0.505v1.195h-0.211v-1.195h-0.508v-0.154h1.224zM33.641 18.649h-0.164c-0.001 0-0.003 0-0.004 0-0.015 0-0.030-0.005-0.041-0.013l0 0c-0.012-0.007-0.021-0.018-0.027-0.030l-0-0-0.146-0.32h-0.701l-0.146 0.32c-0.004 0.014-0.012 0.026-0.022 0.036v0c-0.012 0.008-0.026 0.013-0.042 0.013-0.001 0-0.003-0-0.004-0h-0.163l0.619-1.349h0.216l0.626 1.344zM32.616 18.148h0.584l-0.247-0.549c-0.016-0.035-0.032-0.077-0.044-0.12l-0.002-0.007-0.023 0.072-0.023 0.057-0.245 0.548zM34.708 18.516c0.039 0.002 0.078 0.002 0.116 0 0.033-0.003 0.067-0.008 0.099-0.016 0.036-0.007 0.065-0.016 0.094-0.026l-0.005 0.002c0.027-0.010 0.055-0.022 0.083-0.033v-0.303h-0.248c-0.001 0-0.002 0-0.003 0-0.005 0-0.011-0.001-0.016-0.002l0 0c-0.006-0.002-0.011-0.005-0.015-0.008l0 0c-0.004-0.003-0.007-0.006-0.009-0.011l-0-0c-0.002-0.004-0.003-0.008-0.003-0.012 0-0.001 0-0.001 0-0.002v0-0.104h0.48v0.517c-0.075 0.047-0.162 0.085-0.255 0.109l-0.007 0.001c-0.051 0.013-0.103 0.022-0.155 0.028-0.054 0.006-0.117 0.009-0.181 0.009-0 0-0 0-0 0v0c-0.002 0-0.005 0-0.007 0-0.109 0-0.214-0.019-0.311-0.053l0.007 0.002c-0.095-0.033-0.178-0.081-0.249-0.142l0.001 0.001c-0.066-0.059-0.12-0.13-0.158-0.21l-0.002-0.004c-0.036-0.080-0.057-0.173-0.057-0.271 0-0.003 0-0.006 0-0.010v0c-0-0.003-0-0.005-0-0.008 0-0.099 0.020-0.193 0.057-0.278l-0.002 0.005c0.036-0.080 0.090-0.153 0.16-0.214s0.155-0.108 0.247-0.14c0.106-0.035 0.219-0.051 0.332-0.050 0.058 0 0.115 0.004 0.172 0.012 0.051 0.007 0.1 0.019 0.147 0.034 0.044 0.014 0.085 0.032 0.124 0.053s0.074 0.045 0.108 0.071l-0.059 0.084c-0.005 0.008-0.012 0.014-0.020 0.018l-0 0c-0.008 0.004-0.018 0.007-0.028 0.007h-0c-0.014-0-0.028-0.004-0.039-0.011l0 0c-0.025-0.012-0.045-0.022-0.064-0.034l0.004 0.002c-0.023-0.013-0.051-0.025-0.079-0.035l-0.004-0.001c-0.032-0.011-0.070-0.022-0.109-0.029l-0.005-0.001c-0.045-0.007-0.096-0.012-0.149-0.012-0.003 0-0.006 0-0.009 0h0c-0.002-0-0.005-0-0.007-0-0.083 0-0.162 0.014-0.237 0.039l0.005-0.002c-0.070 0.024-0.131 0.061-0.182 0.107l0-0c-0.052 0.048-0.091 0.105-0.115 0.167-0.026 0.067-0.042 0.144-0.042 0.225s0.015 0.158 0.043 0.229l-0.001-0.004c0.027 0.063 0.069 0.121 0.124 0.17 0.051 0.046 0.113 0.083 0.181 0.107 0.079 0.023 0.162 0.032 0.245 0.027zM36.681 18.495h0.676v0.154h-0.883v-1.349h0.212l-0.005 1.195zM38.061 18.649h-0.212v-1.349h0.212v1.349zM38.848 17.306c0.012 0.006 0.023 0.015 0.032 0.025l0.905 1.017c-0.001-0.007-0.001-0.016-0.001-0.024s0-0.017 0.001-0.025l-0 0.001v-1.005h0.184v1.355h-0.107c-0.002 0-0.004 0-0.007 0-0.014 0-0.028-0.003-0.040-0.008l0.001 0c-0.013-0.007-0.024-0.015-0.033-0.025l-0-0-0.904-1.016v1.049h-0.177v-1.349h0.11c0.012 0 0.024 0.002 0.035 0.006zM41.529 17.3v0.148h-0.751v0.445h0.608v0.143h-0.608v0.46h0.751v0.148h-0.968v-1.346h0.968zM19.344 8.967l9.401 2.303v8.071l-9.401-2.302v-8.073zM18.741 8.279v9.152l10.605 2.599v-9.151l-10.605-2.6z"></path>
<path fill="#8e8f99" style="fill: var(--color1, #8e8f99)" d="M24.425 24.279l-10.607-2.601v-9.151l10.607 2.6v9.153z"></path>
<path fill="#8e8f99" style="fill: var(--color1, #8e8f99)" d="M18.916 8.863l9.278 2.274-3.945 3.406-9.28-2.276 3.947-3.404zM18.741 8.279l-4.923 4.247 10.607 2.6 4.921-4.247-10.605-2.6zM25.022 23.764l4.324-3.732-4.325-1.061v4.793z"></path>
</symbol>
<symbol id="icon-Client-5" viewBox="0 0 61 32">
<path fill="#8e8f99" style="fill: var(--color1, #8e8f99)" d="M21.379 21.954c0.089 0.1 0.137 0.224 0.135 0.352 0.004 0.083-0.012 0.167-0.048 0.244s-0.091 0.145-0.16 0.201c-0.152 0.103-0.34 0.164-0.541 0.164-0.022 0-0.045-0.001-0.067-0.002l0.003 0h-1.064v-2.23h1.042c0.018-0.001 0.040-0.002 0.061-0.002 0.191 0 0.37 0.056 0.52 0.152l-0.004-0.002c0.068 0.051 0.121 0.115 0.156 0.187s0.051 0.151 0.047 0.23c0.006 0.123-0.037 0.244-0.121 0.341-0.082 0.088-0.191 0.15-0.313 0.174l-0.004 0.001c0.141 0.023 0.268 0.091 0.359 0.191zM20.131 21.617h0.445c0.101 0.007 0.201-0.019 0.283-0.074 0.033-0.026 0.058-0.059 0.076-0.097l0.001-0.002c0.013-0.029 0.020-0.062 0.020-0.097 0-0.008-0-0.016-0.001-0.023l0 0.001c0-0.006 0.001-0.012 0.001-0.019 0-0.036-0.008-0.070-0.021-0.101l0.001 0.002c-0.017-0.040-0.043-0.073-0.074-0.099l-0-0c-0.072-0.048-0.16-0.076-0.255-0.076-0.013 0-0.025 0-0.038 0.002l0.002-0h-0.439v0.585zM20.903 22.472c0.035-0.027 0.063-0.061 0.081-0.101l0.001-0.002c0.015-0.031 0.024-0.068 0.024-0.107 0-0.006-0-0.012-0.001-0.018l0 0.001c0-0.005 0-0.010 0-0.016 0-0.040-0.009-0.078-0.026-0.112l0.001 0.002c-0.020-0.041-0.048-0.076-0.083-0.102l-0.001-0c-0.077-0.051-0.171-0.082-0.273-0.082-0.010 0-0.021 0-0.031 0.001l0.001-0h-0.468v0.613h0.473c0.107 0.005 0.212-0.022 0.299-0.077zM23.509 22.913l-0.58-0.872h-0.218v0.871h-0.498v-2.23h0.944c0.020-0.001 0.044-0.002 0.068-0.002 0.221 0 0.426 0.072 0.592 0.194l-0.003-0.002c0.132 0.121 0.212 0.281 0.224 0.45s-0.042 0.337-0.154 0.473c-0.116 0.12-0.275 0.2-0.45 0.227l0.617 0.891h-0.542zM22.711 21.737h0.408c0.283 0 0.425-0.113 0.425-0.338 0-0.005 0.001-0.012 0.001-0.018 0-0.042-0.009-0.082-0.024-0.119l0.001 0.002c-0.019-0.045-0.047-0.084-0.081-0.115l-0-0c-0.078-0.057-0.175-0.092-0.281-0.092-0.014 0-0.028 0.001-0.042 0.002l0.002-0h-0.413l0.005 0.679zM26.234 22.464h-0.994l-0.176 0.449h-0.523l0.913-2.205h0.565l0.909 2.205h-0.523l-0.172-0.449zM26.101 22.126l-0.363-0.941-0.363 0.941h0.726zM29.645 22.913h-0.495l-1.11-1.516v1.516h-0.494v-2.23h0.494l1.109 1.525v-1.525h0.495v2.23zM32.469 22.379c-0.108 0.172-0.26 0.307-0.441 0.391l-0.006 0.003c-0.215 0.098-0.455 0.146-0.696 0.14h-0.881v-2.23h0.881c0.012-0 0.027-0.001 0.041-0.001 0.237 0 0.462 0.051 0.665 0.142l-0.010-0.004c0.189 0.086 0.345 0.222 0.448 0.389 0.102 0.181 0.155 0.382 0.155 0.585-0.001 0.215-0.058 0.417-0.158 0.591l0.003-0.006zM31.903 22.325c0.134-0.137 0.217-0.325 0.219-0.532v-0c-0.002-0.207-0.085-0.395-0.219-0.532l0 0c-0.154-0.119-0.35-0.192-0.563-0.192-0.020 0-0.040 0.001-0.060 0.002l0.003-0h-0.344v1.444h0.344c0.017 0.001 0.037 0.002 0.057 0.002 0.213 0 0.408-0.072 0.564-0.193l-0.002 0.002zM26.544 8.279s6.388 2.171 6.252 5.313v5.314s-6.383-2.172-6.251-5.314l-0.003-5.313zM38.487 17.662c1.207-0.748 2.602-1.211 4.059-1.347v-1.664c-1.679 0.583-3.102 1.638-4.059 3.010z"></path>
<path fill="#8e8f99" style="fill: var(--color1, #8e8f99)" d="M37.762 18.163c0.987-1.79 2.699-3.171 4.783-3.86v-4.793s-9.097 3.093-8.905 7.567v7.566s0.405-0.138 1.043-0.398c0-0.242 0-0.486 0.029-0.731 0.188-2.077 1.285-4.002 3.049-5.351z"></path>
<path fill="#8e8f99" style="fill: var(--color1, #8e8f99)" d="M36.897 20.973c0.048-0.525 0.155-1.044 0.319-1.549-1.099 1.165-1.764 2.611-1.903 4.134-0.013 0.144-0.020 0.287-0.024 0.436 0.762-0.328 1.337-0.605 1.901-0.902l-0.151 0.072c-0.109-0.465-0.171-0.998-0.171-1.546 0-0.227 0.011-0.452 0.032-0.673l-0.002 0.028zM37.259 21.001c-0.018 0.184-0.028 0.397-0.028 0.613 0 0.485 0.051 0.959 0.148 1.415l-0.008-0.044c2.485-1.339 5.278-3.407 5.171-5.908v-0.218c-1.776 0.179-3.437 0.878-4.729 1.989-0.285 0.629-0.482 1.359-0.552 2.126l-0.002 0.027z"></path>
</symbol>
<symbol id="icon-Client-4" viewBox="0 0 61 32">
<path fill="#8e8f99" style="fill: var(--color1, #8e8f99)" d="M20.392 13.643h-0.001c-0.867 0-1.571 0.634-1.571 1.416v0.001c0 0.782 0.704 1.416 1.571 1.416h0.001c0.868 0 1.571-0.634 1.571-1.416v-0.001c0-0.782-0.703-1.416-1.571-1.416zM31.986 13.19c-0.002-1.087-0.482-2.127-1.334-2.896s-2.007-1.201-3.212-1.203c-1.205 0.002-2.36 0.435-3.213 1.203s-1.332 1.81-1.335 2.896v5.991s9.092-0.913 9.093-5.989v-0.001zM15.636 21.147c0.002 0.756 0.336 1.48 0.929 2.015s1.396 0.836 2.235 0.838c0.838-0.002 1.641-0.303 2.234-0.838s0.927-1.258 0.929-2.015v-4.168s-6.327 0.635-6.327 4.167zM18.8 21.894c-0.164 0-0.324-0.044-0.46-0.126-0.133-0.079-0.238-0.194-0.303-0.331l-0.002-0.005c-0.040-0.084-0.063-0.182-0.063-0.286 0-0.052 0.006-0.102 0.017-0.15l-0.001 0.005c0.036-0.153 0.116-0.284 0.226-0.382l0.001-0.001c0.115-0.103 0.26-0.175 0.419-0.204l0.005-0.001c0.16-0.029 0.327-0.014 0.479 0.043s0.281 0.152 0.372 0.275c0.091 0.123 0.14 0.267 0.14 0.415 0 0.098-0.021 0.196-0.062 0.287s-0.103 0.173-0.179 0.243c-0.076 0.068-0.165 0.123-0.263 0.161l-0.006 0.002c-0.094 0.036-0.203 0.057-0.317 0.057-0 0-0.001 0-0.001 0h0v-0.003zM24.585 20.551v1.551h-0.32v-1.551h0.32zM25.203 21.213v0.249h-0.705v-0.249h0.705zM25.277 20.551v0.25h-0.779v-0.25h0.78zM26.737 21.29v0.073c0 0.118-0.016 0.224-0.048 0.317-0.031 0.093-0.077 0.173-0.136 0.241l0.001-0.001c-0.058 0.065-0.128 0.115-0.209 0.15-0.076 0.033-0.165 0.052-0.258 0.052-0.003 0-0.007-0-0.010-0h0c-0.097 0-0.186-0.017-0.267-0.052-0.082-0.036-0.152-0.087-0.208-0.15l-0-0.001c-0.059-0.067-0.106-0.147-0.136-0.235l-0.001-0.005c-0.030-0.091-0.048-0.195-0.048-0.303 0-0.005 0-0.010 0-0.015v0.001-0.073c0-0.119 0.016-0.224 0.048-0.317 0.031-0.092 0.077-0.172 0.136-0.241l-0.001 0.001c0.059-0.066 0.128-0.116 0.209-0.151s0.17-0.052 0.268-0.052c0.098 0 0.187 0.017 0.267 0.052s0.151 0.085 0.209 0.151c0.059 0.066 0.104 0.146 0.136 0.24 0.033 0.093 0.049 0.199 0.049 0.317zM26.414 21.364v-0.076c0-0.082-0.007-0.155-0.022-0.217-0.013-0.060-0.036-0.113-0.067-0.16l0.001 0.002c-0.027-0.040-0.063-0.073-0.105-0.095l-0.002-0.001c-0.040-0.021-0.087-0.033-0.137-0.033-0.002 0-0.004 0-0.006 0h0c-0.054 0-0.102 0.011-0.144 0.033-0.043 0.023-0.079 0.056-0.105 0.095l-0.001 0.001c-0.029 0.045-0.052 0.098-0.064 0.155l-0.001 0.003c-0.014 0.061-0.022 0.131-0.022 0.204 0 0.005 0 0.010 0 0.014v-0.001 0.076c0 0.082 0.007 0.154 0.022 0.217s0.037 0.115 0.066 0.159c0.029 0.043 0.065 0.075 0.107 0.097s0.090 0.033 0.144 0.033c0.054 0 0.102-0.011 0.144-0.033 0.043-0.023 0.079-0.056 0.105-0.096l0.001-0.001c0.028-0.044 0.050-0.096 0.065-0.159 0.014-0.061 0.022-0.132 0.022-0.204 0-0.005-0-0.009-0-0.014v0.001zM27.775 21.696c0-0.001 0-0.002 0-0.003 0-0.026-0.005-0.050-0.013-0.073l0 0.001c-0.009-0.025-0.025-0.046-0.044-0.062l-0-0c-0.027-0.022-0.057-0.041-0.090-0.055l-0.003-0.001c-0.041-0.019-0.092-0.039-0.145-0.055l-0.009-0.002c-0.082-0.026-0.148-0.052-0.213-0.082l0.012 0.005c-0.063-0.029-0.118-0.062-0.168-0.1l0.002 0.001c-0.046-0.037-0.083-0.081-0.112-0.131l-0.001-0.002c-0.026-0.049-0.041-0.107-0.041-0.168 0-0.003 0-0.005 0-0.008v0c-0-0.001-0-0.003-0-0.005 0-0.063 0.016-0.121 0.044-0.173l-0.001 0.002c0.028-0.053 0.068-0.099 0.119-0.136 0.051-0.039 0.112-0.068 0.181-0.089 0.071-0.020 0.147-0.031 0.231-0.031 0.114 0 0.214 0.021 0.299 0.062s0.151 0.098 0.198 0.169c0.047 0.072 0.071 0.154 0.071 0.246h-0.317c0-0.002 0-0.004 0-0.005 0-0.042-0.011-0.081-0.029-0.115l0.001 0.001c-0.019-0.036-0.049-0.064-0.084-0.082l-0.001-0c-0.038-0.019-0.084-0.030-0.132-0.030-0.004 0-0.008 0-0.012 0l0.001-0c-0.003-0-0.007-0-0.011-0-0.046 0-0.090 0.009-0.13 0.026l0.002-0.001c-0.035 0.014-0.063 0.037-0.083 0.067l-0 0.001c-0.017 0.026-0.027 0.057-0.027 0.091 0 0.001 0 0.002 0 0.003v-0c0 0.026 0.006 0.050 0.019 0.071 0.016 0.024 0.036 0.044 0.059 0.059l0.001 0c0.026 0.019 0.058 0.036 0.097 0.052s0.083 0.032 0.133 0.048c0.085 0.025 0.159 0.054 0.223 0.086s0.119 0.068 0.162 0.108c0.044 0.040 0.076 0.085 0.098 0.135s0.033 0.108 0.033 0.172c0 0.004 0 0.010 0 0.015 0 0.123-0.060 0.233-0.153 0.301l-0.001 0.001c-0.049 0.037-0.109 0.065-0.178 0.084s-0.146 0.029-0.231 0.029c-0.076 0-0.152-0.010-0.227-0.030-0.077-0.021-0.145-0.053-0.206-0.094l0.002 0.002c-0.060-0.041-0.108-0.094-0.144-0.155l-0.001-0.002c-0.036-0.064-0.054-0.14-0.054-0.227h0.321c0 0.048 0.007 0.089 0.022 0.123s0.036 0.060 0.062 0.080l0 0c0.028 0.020 0.061 0.036 0.096 0.044l0.002 0c0.038 0.009 0.080 0.014 0.125 0.014 0.004 0 0.008 0 0.012 0 0.045 0 0.088-0.009 0.127-0.024l-0.002 0.001c0.063-0.025 0.107-0.086 0.107-0.157 0-0.001 0-0.002-0-0.002v0zM29.005 20.551v1.551h-0.319v-1.551h0.319zM29.483 20.551v0.25h-1.265v-0.25h1.265zM30.705 21.853v0.249h-0.825v-0.249h0.825zM29.984 20.551v1.551h-0.32v-1.551h0.32zM30.598 21.183v0.243h-0.718v-0.243h0.718zM30.704 20.551v0.25h-0.825v-0.25h0.825zM30.892 20.551h0.578c0.119 0 0.221 0.018 0.306 0.053 0.086 0.036 0.152 0.088 0.198 0.158s0.069 0.155 0.069 0.257c0 0.083-0.014 0.155-0.043 0.214s-0.068 0.109-0.117 0.147l-0.001 0.001c-0.051 0.039-0.11 0.071-0.174 0.093l-0.004 0.001-0.101 0.053h-0.503l-0.002-0.249h0.374c0.003 0 0.007 0 0.011 0 0.047 0 0.091-0.011 0.131-0.031l-0.002 0.001c0.036-0.019 0.064-0.047 0.083-0.082l0-0.001c0.018-0.034 0.029-0.075 0.029-0.118 0-0.002-0-0.004-0-0.006v0c0-0.002 0-0.005 0-0.007 0-0.044-0.010-0.086-0.028-0.123l0.001 0.002c-0.019-0.036-0.048-0.065-0.083-0.082l-0.001-0c-0.039-0.018-0.084-0.029-0.132-0.029-0.004 0-0.007 0-0.011 0h-0.258v1.301h-0.319v-1.551zM31.759 22.102l-0.353-0.692 0.337-0.002 0.358 0.679v0.015h-0.342zM33.437 21.549h-0.395v-0.249h0.395c0.004 0 0.008 0 0.013 0 0.050 0 0.096-0.011 0.138-0.031l-0.002 0.001c0.037-0.019 0.065-0.049 0.084-0.084l0.001-0.001c0.017-0.037 0.026-0.080 0.026-0.126s-0.010-0.089-0.027-0.128l0.001 0.002c-0.018-0.040-0.047-0.073-0.083-0.095l-0.001-0.001c-0.039-0.023-0.087-0.037-0.137-0.037-0.004 0-0.008 0-0.012 0l0.001-0h-0.285v1.301h-0.32v-1.551h0.604c0.121 0 0.225 0.022 0.312 0.066 0.087 0.043 0.154 0.103 0.2 0.18s0.069 0.164 0.069 0.263c0 0.1-0.023 0.187-0.069 0.26s-0.113 0.13-0.2 0.169c-0.087 0.040-0.191 0.060-0.313 0.060zM35.28 21.853v0.249h-0.825v-0.249h0.825zM34.559 20.551v1.551h-0.32v-1.551h0.32zM35.172 21.183v0.243h-0.718v-0.243h0.718zM35.279 20.551v0.25h-0.824v-0.25h0.824zM36.181 20.551v1.551h-0.319v-1.551h0.319zM36.659 20.551v0.25h-1.265v-0.25h1.265zM37.881 21.853v0.249h-0.825v-0.249h0.825zM37.16 20.551v1.551h-0.32v-1.551h0.32zM37.774 21.183v0.243h-0.718v-0.243h0.718zM37.88 20.551v0.25h-0.824v-0.25h0.824zM38.068 20.551h0.579c0.119 0 0.22 0.018 0.306 0.053s0.152 0.088 0.198 0.158 0.069 0.155 0.069 0.257c0 0.083-0.014 0.155-0.043 0.214s-0.068 0.109-0.117 0.147l-0.001 0.001c-0.051 0.039-0.11 0.071-0.174 0.093l-0.004 0.001-0.101 0.053h-0.503l-0.002-0.249h0.374c0.003 0 0.007 0 0.011 0 0.047 0 0.091-0.011 0.13-0.031l-0.002 0.001c0.036-0.019 0.064-0.047 0.083-0.082l0.001-0.001c0.018-0.034 0.029-0.075 0.029-0.118 0-0.002-0-0.004-0-0.006v0c0-0.002 0-0.005 0-0.007 0-0.044-0.010-0.086-0.028-0.123l0.001 0.002c-0.019-0.036-0.048-0.065-0.083-0.082l-0.001-0c-0.038-0.018-0.084-0.029-0.131-0.029-0.004 0-0.007 0-0.011 0h-0.258v1.301h-0.32v-1.551zM38.935 22.102l-0.354-0.692 0.338-0.002 0.358 0.679v0.015h-0.342zM40.273 21.696c0-0.001 0-0.003 0-0.004 0-0.025-0.005-0.050-0.013-0.072l0 0.001c-0.009-0.025-0.025-0.046-0.044-0.062l-0-0c-0.027-0.022-0.057-0.041-0.090-0.055l-0.002-0.001c-0.041-0.019-0.092-0.039-0.145-0.055l-0.009-0.002c-0.082-0.026-0.148-0.052-0.212-0.082l0.012 0.005c-0.063-0.029-0.118-0.062-0.168-0.1l0.002 0.001c-0.046-0.037-0.084-0.081-0.112-0.131l-0.001-0.002c-0.026-0.049-0.040-0.106-0.040-0.168 0-0.003 0-0.006 0-0.008v0c0-0.065 0.014-0.123 0.043-0.176 0.030-0.055 0.070-0.1 0.118-0.136l0.001-0.001c0.051-0.039 0.112-0.068 0.181-0.089 0.067-0.020 0.144-0.031 0.223-0.031 0.003 0 0.006 0 0.008 0h-0c0.114 0 0.214 0.021 0.299 0.062s0.151 0.098 0.198 0.169c0.048 0.072 0.071 0.154 0.071 0.246h-0.317c0-0.002 0-0.004 0-0.006 0-0.042-0.011-0.081-0.029-0.115l0.001 0.001c-0.019-0.036-0.049-0.064-0.084-0.082l-0.001-0c-0.038-0.019-0.084-0.030-0.132-0.030-0.004 0-0.008 0-0.012 0l0.001-0c-0.003-0-0.007-0-0.011-0-0.046 0-0.090 0.009-0.13 0.026l0.002-0.001c-0.034 0.014-0.062 0.037-0.083 0.067l-0 0.001c-0.017 0.026-0.028 0.057-0.028 0.091 0 0.001 0 0.002 0 0.003v-0c0 0.026 0.006 0.050 0.019 0.071 0.016 0.024 0.036 0.044 0.059 0.059l0.001 0c0.026 0.019 0.059 0.036 0.097 0.052s0.083 0.032 0.133 0.048c0.085 0.025 0.159 0.054 0.223 0.086s0.119 0.068 0.162 0.108 0.076 0.085 0.098 0.135c0.022 0.051 0.033 0.108 0.033 0.172 0 0.067-0.013 0.128-0.039 0.181-0.027 0.055-0.066 0.1-0.113 0.135l-0.001 0.001c-0.051 0.037-0.11 0.066-0.174 0.083l-0.004 0.001c-0.069 0.019-0.146 0.029-0.231 0.029-0.076 0-0.152-0.010-0.227-0.030-0.077-0.021-0.145-0.053-0.206-0.094l0.002 0.002c-0.060-0.041-0.109-0.094-0.144-0.155l-0.001-0.002c-0.034-0.062-0.054-0.137-0.054-0.216 0-0.004 0-0.008 0-0.012v0.001h0.321c0 0.048 0.007 0.089 0.022 0.123s0.036 0.060 0.062 0.080l0 0c0.028 0.020 0.061 0.036 0.096 0.044l0.002 0c0.038 0.009 0.080 0.014 0.125 0.014 0.004 0 0.008 0 0.012 0 0.045 0 0.087-0.009 0.126-0.024l-0.002 0.001c0.063-0.025 0.107-0.086 0.107-0.156 0-0.001 0-0.002-0-0.003v0z"></path>
</symbol>
<symbol id="icon-clock" viewBox="0 0 32 32">
<path fill="#2e2f42" style="fill: var(--color2, #2e2f42)" d="M31.297 15.302c-0.002-8.453-6.855-15.303-15.307-15.302s-15.303 6.855-15.302 15.308c0.002 6.788 4.422 12.543 10.541 14.545l0.108 0.031c0.060 0.019 0.123 0.029 0.187 0.029 0.126-0 0.245-0.035 0.346-0.095l-0.003 0.002c0.135-0.080 0.236-0.207 0.284-0.357l3.865-12.25c1.054-0.004 1.906-0.859 1.906-1.913 0-1.057-0.856-1.913-1.913-1.913-0.303 0-0.59 0.070-0.844 0.196l0.011-0.005-5.106-5.107c-0.115-0.115-0.275-0.187-0.451-0.187-0.352 0-0.638 0.285-0.638 0.638 0 0.176 0.071 0.336 0.187 0.451v0l5.104 5.109c-0.121 0.241-0.191 0.525-0.191 0.825 0 0.602 0.283 1.137 0.724 1.48l0.004 0.003-3.682 11.673c-7.278-2.681-11.004-10.754-8.324-18.032 2.682-7.277 10.755-11.005 18.033-8.323 7.277 2.681 11.004 10.755 8.322 18.032-1.345 3.581-4.003 6.406-7.373 7.938l-0.088 0.036-0.398-1.875c-0.064-0.29-0.319-0.504-0.623-0.504-0.163 0-0.312 0.061-0.425 0.162l0.001-0.001-3.837 3.425c-0.131 0.117-0.214 0.287-0.214 0.476 0 0.283 0.185 0.524 0.441 0.607l0.005 0.001 4.898 1.564c0.058 0.020 0.126 0.031 0.196 0.031 0.352 0 0.637-0.285 0.637-0.637 0-0.047-0.005-0.093-0.015-0.137l0.001 0.004-0.391-1.838c5.528-2.374 9.329-7.772 9.329-14.057 0-0.011 0-0.022-0-0.034v0.002zM15.992 14.664c0.352 0 0.638 0.286 0.638 0.638s-0.286 0.638-0.638 0.638v0c-0.352 0-0.638-0.286-0.638-0.638s0.286-0.638 0.638-0.638v0zM18.093 29.527l2.184-1.948 0.603 2.84-2.788-0.892z"></path>
<path fill="#4d5ae5" style="fill: var(--color3, #4d5ae5)" d="M15.355 3.185v1.275c0 0.352 0.285 0.638 0.637 0.638s0.637-0.285 0.637-0.638v-1.275c-0.014-0.341-0.294-0.613-0.637-0.613s-0.624 0.271-0.637 0.611l-0 0.001z"></path>
<path fill="#4d5ae5" style="fill: var(--color3, #4d5ae5)" d="M3.876 14.664c-0.352 0-0.637 0.285-0.637 0.637s0.285 0.637 0.638 0.637h1.275c0.352 0 0.638-0.285 0.638-0.637s-0.285-0.637-0.638-0.637h-1.275z"></path>
<path fill="#4d5ae5" style="fill: var(--color3, #4d5ae5)" d="M28.108 15.939c0.352 0 0.637-0.285 0.637-0.637s-0.285-0.637-0.637-0.637h-1.275c-0.341 0.014-0.613 0.294-0.613 0.637s0.271 0.624 0.611 0.637l0.001 0h1.275z"></path>
</symbol>
<symbol id="icon-diagram" viewBox="0 0 32 32">
<path fill="#4d5ae5" style="fill: var(--color3, #4d5ae5)" d="M14.925 14.965h1.066v4.797h-1.066v-4.797z"></path>
<path fill="#4d5ae5" style="fill: var(--color3, #4d5ae5)" d="M19.19 17.097h1.066v2.665h-1.066v-2.665z"></path>
<path fill="#4d5ae5" style="fill: var(--color3, #4d5ae5)" d="M10.661 18.696h1.066v1.066h-1.066v-1.066z"></path>
<path fill="#4d5ae5" style="fill: var(--color3, #4d5ae5)" d="M7.463 18.163h1.066v1.599h-1.066v-1.599z"></path>
<path fill="#2e2f42" style="fill: var(--color2, #2e2f42)" d="M1.599 28.291h25.587c0.883 0 1.599-0.716 1.599-1.599v0-2.133c0-0 0-0.001 0-0.001 0-0.883-0.716-1.599-1.599-1.599-0 0-0 0-0.001 0h-0.532v-13.292l3.028-2.868c0.208 0.105 0.452 0.166 0.712 0.166 0.888 0 1.608-0.72 1.608-1.608s-0.72-1.608-1.608-1.608c-0.888 0-1.608 0.72-1.608 1.608 0 0.246 0.055 0.48 0.155 0.689l-0.004-0.010-2.282 2.162v-1.23c0-0.883-0.716-1.599-1.599-1.599v0h-21.323c-0 0-0 0-0.001 0-0.883 0-1.599 0.716-1.599 1.599v0 15.991h-0.533c-0.883 0-1.599 0.716-1.599 1.599 0 0 0 0.001 0 0.001v-0 2.132c0 0.883 0.716 1.599 1.599 1.599v0zM30.384 4.837c0.294 0 0.533 0.239 0.533 0.533s-0.239 0.533-0.533 0.533v0c-0.294 0-0.533-0.239-0.533-0.533s0.239-0.533 0.533-0.533v0zM3.199 6.969c0-0.295 0.239-0.533 0.533-0.533h21.322c0.294 0 0.533 0.239 0.533 0.533v2.238l-1.066 1.013v-2.185c0-0.295-0.238-0.533-0.532-0.533h-19.191c-0.295 0-0.533 0.239-0.533 0.533v13.326c-0 0.294 0.238 0.533 0.532 0.533h19.19c0.294-0 0.533-0.239 0.533-0.534v-9.674l1.067-1.010v12.283h-22.388v-15.991zM7.996 13.899c-0.002 0-0.003 0-0.005 0-0.883 0-1.599 0.716-1.599 1.599s0.716 1.599 1.599 1.599c0.432 0 0.825-0.172 1.112-0.45l-0 0 1.853 0.93c0.215 0.108 0.476 0.057 0.636-0.123l3.938-4.431 3.872 2.902c0.208 0.156 0.498 0.139 0.686-0.040l3.365-3.188v8.131h-18.123v-12.26h18.124v2.66l-3.773 3.572-3.905-2.927c-0.088-0.066-0.199-0.106-0.319-0.106-0.158 0-0.3 0.069-0.398 0.178l-0 0.001-3.992 4.493-1.493-0.746c0.011-0.064 0.018-0.129 0.020-0.194-0.001-0.883-0.716-1.598-1.599-1.599h-0zM8.529 15.498c0 0.294-0.239 0.533-0.533 0.533s-0.533-0.239-0.533-0.533v0c0-0.294 0.239-0.533 0.533-0.533s0.533 0.239 0.533 0.533v0zM11.727 24.026h5.331v0.533c0 0.294-0.239 0.532-0.534 0.532h-4.265c-0.294 0-0.533-0.239-0.533-0.533v0-0.534zM1.066 24.56c0-0.295 0.239-0.534 0.533-0.534h9.062v0.533c0 0.883 0.716 1.599 1.599 1.599v0h4.265c0.883 0 1.599-0.716 1.599-1.599 0-0 0-0 0-0.001v0-0.534h9.061c0.295 0 0.534 0.238 0.534 0.533v2.132c0 0.294-0.239 0.533-0.534 0.533h-25.585c-0.294 0-0.533-0.239-0.533-0.533v0-2.133z"></path>
</symbol>
<symbol id="icon-antenna" viewBox="0 0 32 32">
<path fill="#2e2f42" style="fill: var(--color2, #2e2f42)" d="M30.773 22.098l-8.443-8.505 0.937-4.615c0.242 0.094 0.499 0.143 0.759 0.145h0.007c0.008 0 0.017 0 0.026 0 1.192 0 2.159-0.967 2.159-2.159s-0.967-2.159-2.159-2.159c-1.192 0-2.159 0.967-2.159 2.159 0 0.26 0.046 0.508 0.13 0.739l-0.005-0.015-4.96 0.605-8.091-8.133c-0.096-0.098-0.229-0.159-0.376-0.16h-0c-0.14 0.001-0.274 0.057-0.373 0.155l-1.513 1.504c-0.097 0.097-0.156 0.23-0.156 0.377s0.060 0.281 0.156 0.377v0l0.814 0.825c-1.143 2.062-1.816 4.522-1.816 7.139 0 4.106 1.656 7.825 4.336 10.526l-0.001-0.001c0.042 0.041 0.091 0.073 0.146 0.098-0.034 0.18-0.052 0.363-0.053 0.546v6.187h-6.4c-1.472 0.002-2.665 1.195-2.667 2.667v1.067c0 0.295 0.24 0.533 0.534 0.533h24.534c0.294 0 0.533-0.239 0.533-0.534v-1.067c-0.002-1.472-1.194-2.664-2.666-2.666h-6.4v-2.742c1.003 0.21 2.024 0.317 3.049 0.32 2.58-0.003 5.005-0.663 7.117-1.822l-0.077 0.039 0.819 0.823c0.099 0.101 0.235 0.159 0.377 0.16 0.14-0.001 0.274-0.056 0.373-0.155l1.513-1.505c0.096-0.097 0.156-0.23 0.156-0.377s-0.060-0.28-0.156-0.377v0zM23.28 6.233c0.193-0.192 0.458-0.31 0.752-0.31 0.589 0 1.067 0.478 1.067 1.066s-0.477 1.066-1.067 1.066c-0 0-0 0-0 0h-0.003c-0.587-0.003-1.061-0.479-1.061-1.066 0-0.296 0.12-0.563 0.315-0.756l0-0h-0.002zM22.024 9.738l-0.599 2.945-1.175-1.182 1.774-1.764zM21.418 8.835l-1.92 1.91-1.485-1.494 3.405-0.415zM24.003 28.8c0.884 0 1.6 0.716 1.6 1.6v0 0.534h-23.466v-0.534c0-0.884 0.716-1.6 1.6-1.6h20.267zM16.537 26.667v1.067h-5.333v-1.067h5.333zM11.204 25.6v-4.053c0-1.294 1.197-2.346 2.666-2.346 1.471 0 2.668 1.053 2.668 2.346v4.053h-5.334zM17.604 23.904v-2.357c0-1.882-1.675-3.413-3.733-3.413-0.018-0-0.038-0-0.059-0-1.353 0-2.54 0.707-3.213 1.771l-0.009 0.016c-2.36-2.482-3.812-5.846-3.812-9.55 0-2.314 0.567-4.496 1.569-6.414l-0.036 0.077 18.602 18.709c-1.823 0.947-3.98 1.502-6.266 1.502-1.079 0-2.128-0.124-3.136-0.357l0.093 0.018zM28.893 23.22l-0.752-0.755-20.305-20.425 0.755-0.752 7.935 7.98c0.003 0 0.006 0.007 0.009 0.009l13.114 13.191-0.757 0.752z"></path>
<path fill="#4d5ae5" style="fill: var(--color3, #4d5ae5)" d="M13.876 20.267h-0.004c-0.001 0-0.002 0-0.002 0-0.884 0-1.6 0.716-1.6 1.6s0.715 1.599 1.597 1.6h0.005c0.001 0 0.002 0 0.002 0 0.884 0 1.6-0.716 1.6-1.6s-0.715-1.599-1.597-1.6h-0zM14.249 22.245c-0.096 0.096-0.229 0.155-0.376 0.155-0.295 0-0.534-0.239-0.534-0.534 0-0.001 0-0.001 0-0.002v0c0.002-0.292 0.239-0.529 0.531-0.53h0c0.293 0.002 0.53 0.24 0.53 0.534 0 0.148-0.060 0.281-0.157 0.378l-0 0h0.005z"></path>
</symbol>
<symbol id="icon-astronaut" viewBox="0 0 33 32">
<path fill="#4d5ae5" style="fill: var(--color3, #4d5ae5)" d="M31.512 4.196c-0.059-0.177-0.211-0.308-0.396-0.336l-0.003-0-1.772-0.258-0.793-1.606c-0.166-0.339-0.721-0.339-0.887 0l-0.793 1.606-1.772 0.258c-0.241 0.036-0.424 0.242-0.424 0.49 0 0.139 0.057 0.264 0.149 0.354l1.283 1.25-0.303 1.765c-0.032 0.186 0.045 0.373 0.197 0.484 0.154 0.112 0.355 0.126 0.521 0.038l1.585-0.833 1.585 0.833c0.066 0.035 0.145 0.056 0.229 0.056 0.274 0 0.495-0.222 0.495-0.495 0-0.029-0.003-0.057-0.007-0.085l0 0.003-0.302-1.765 1.283-1.25c0.092-0.090 0.149-0.215 0.149-0.354 0-0.055-0.009-0.107-0.025-0.157l0.001 0.003zM29.228 5.427c-0.116 0.113-0.17 0.277-0.142 0.438l0.177 1.033-0.928-0.487c-0.067-0.036-0.146-0.057-0.231-0.057s-0.164 0.021-0.233 0.059l0.003-0.001-0.928 0.487 0.177-1.033c0.005-0.025 0.007-0.054 0.007-0.084 0-0.139-0.057-0.264-0.149-0.354l-0.751-0.732 1.038-0.151c0.161-0.023 0.3-0.125 0.372-0.27l0.464-0.94 0.465 0.94c0.072 0.146 0.211 0.247 0.372 0.27l1.037 0.151-0.75 0.733z"></path>
<path fill="#4d5ae5" style="fill: var(--color3, #4d5ae5)" d="M26.095 19.035h-0.989v0.99h0.989v-0.99z"></path>
<path fill="#4d5ae5" style="fill: var(--color3, #4d5ae5)" d="M26.095 21.014h-0.989v0.99h0.989v-0.991z"></path>
<path fill="#4d5ae5" style="fill: var(--color3, #4d5ae5)" d="M27.084 20.025h-0.989v0.989h0.989v-0.988z"></path>
<path fill="#4d5ae5" style="fill: var(--color3, #4d5ae5)" d="M25.106 20.025h-0.99v0.989h0.99v-0.988z"></path>
<path fill="#4d5ae5" style="fill: var(--color3, #4d5ae5)" d="M22.632 24.477h-0.989v0.989h0.989v-0.988z"></path>
<path fill="#4d5ae5" style="fill: var(--color3, #4d5ae5)" d="M22.632 26.456h-0.989v0.989h0.989v-0.989z"></path>
<path fill="#4d5ae5" style="fill: var(--color3, #4d5ae5)" d="M23.622 25.466h-0.99v0.99h0.99v-0.991z"></path>
<path fill="#4d5ae5" style="fill: var(--color3, #4d5ae5)" d="M21.643 25.466h-0.99v0.99h0.99v-0.991z"></path>
<path fill="#4d5ae5" style="fill: var(--color3, #4d5ae5)" d="M16.696 22.498h-0.989v0.99h0.989v-0.991z"></path>
<path fill="#4d5ae5" style="fill: var(--color3, #4d5ae5)" d="M16.696 24.477h-0.989v0.989h0.989v-0.988z"></path>
<path fill="#4d5ae5" style="fill: var(--color3, #4d5ae5)" d="M17.685 23.488h-0.989v0.989h0.989v-0.989z"></path>
<path fill="#4d5ae5" style="fill: var(--color3, #4d5ae5)" d="M15.706 23.488h-0.99v0.989h0.99v-0.989z"></path>
<path fill="#4d5ae5" style="fill: var(--color3, #4d5ae5)" d="M7.296 5.678h-0.989v0.989h0.989v-0.989z"></path>
<path fill="#4d5ae5" style="fill: var(--color3, #4d5ae5)" d="M7.296 7.657h-0.989v0.99h0.989v-0.989z"></path>
<path fill="#4d5ae5" style="fill: var(--color3, #4d5ae5)" d="M8.286 6.668h-0.989v0.99h0.989v-0.989z"></path>
<path fill="#4d5ae5" style="fill: var(--color3, #4d5ae5)" d="M6.307 6.668h-0.99v0.99h0.99v-0.989z"></path>
<path fill="#2e2f42" style="fill: var(--color2, #2e2f42)" d="M24.779 13.133c-0.26-0.349-0.648-0.59-1.094-0.653l-0.009-0.001c-0.071-0.011-0.153-0.017-0.236-0.017-0.381 0-0.732 0.129-1.011 0.346l0.004-0.003-1.161 0.89-1.761 1.315-1.259-0.502c2.246-1.007 3.815-3.254 3.815-5.862 0-3.546-2.896-6.43-6.456-6.43s-6.457 2.885-6.457 6.43c0 1.285 0.385 2.48 1.039 3.486l-2.568-0.022c-0.008 0-0.014 0.004-0.022 0.005-0.049 0.002-0.097 0.012-0.144 0.029-0.012 0.005-0.024 0.007-0.036 0.012-0.006 0.003-0.012 0.003-0.019 0.006l-2.998 1.481c-0-0-0.001-0-0.001 0l-1.756 0.844c-0.022 0.010-0.042 0.021-0.060 0.033l0.001-0.001c-0.447 0.3-0.738 0.804-0.738 1.375 0 0.275 0.067 0.535 0.187 0.763l-0.004-0.009c0.204 0.393 0.549 0.689 0.968 0.821l0.012 0.003c0.149 0.049 0.32 0.077 0.498 0.077 0.286 0 0.555-0.073 0.789-0.201l-0.009 0.004 1.287-0.685 2.1-1.084 1.259-0.008-5.047 5.025s-0.001 0-0.001 0.001l-1.241 1.237c-0.281 0.277-0.454 0.662-0.454 1.088 0 0.001 0 0.003 0 0.004v-0c0 0.413 0.161 0.801 0.454 1.093 0.301 0.3 0.697 0.45 1.094 0.45 0.001 0 0.002 0 0.003 0 0.426 0 0.812-0.172 1.092-0.45l-0 0 1.219-1.214 1.615-1.206 0.835 0.832-2.877 2.865c-0.281 0.277-0.455 0.662-0.455 1.088 0 0.001 0 0.003 0 0.004v-0c0 0.413 0.161 0.801 0.455 1.094 0.301 0.3 0.698 0.45 1.095 0.45 0.001 0 0.002 0 0.003 0 0.426 0 0.812-0.172 1.092-0.45l-0 0 4.164-4.148c0.006-0.006 0.014-0.008 0.020-0.014l4.792-5.248 3.219 0.458c0.019 0.003 0.041 0.004 0.063 0.004 0.065 0 0.127-0.013 0.184-0.036l-0.003 0.001c0.016-0.006 0.031-0.014 0.046-0.022 0.017-0.009 0.036-0.014 0.053-0.025l2.981-1.978c0.011-0.007 0.017-0.019 0.027-0.027 0.012-0.009 0.026-0.013 0.037-0.023l1.18-1.105c0.322-0.302 0.523-0.73 0.523-1.205 0-0.371-0.123-0.714-0.329-0.989l0.003 0.004zM3.831 16.482c-0.16 0.086-0.343 0.103-0.518 0.048-0.273-0.086-0.468-0.337-0.468-0.634 0-0.219 0.106-0.413 0.269-0.534l0.002-0.001 1.218-0.586 0.416 1.217-0.92 0.49zM7.075 14.787l-1.436 0.742-0.407-1.191 1.88-0.928-0.037 1.376zM21.080 8.646c0 0.851-0.203 1.655-0.556 2.374l-3.878-1.761c-0.040-0.534-0.317-0.995-0.726-1.284l-0.005-0.004 1.358-4.509c2.205 0.702 3.807 2.759 3.807 5.183zM10.145 8.646c0-3.001 2.453-5.442 5.467-5.442 0.235 0 0.464 0.020 0.691 0.049l-1.328 4.409c-0.017 0-0.034-0.005-0.052-0.005-0 0-0 0-0 0-0.957 0-1.734 0.775-1.736 1.731v0c0.003 0.957 0.779 1.732 1.736 1.732 0 0 0 0 0.001 0h-0c0.644 0 1.201-0.356 1.501-0.877l3.583 1.628c-0.997 1.342-2.592 2.217-4.393 2.217-3.014 0-5.468-2.441-5.468-5.442zM15.67 9.389c-0 0.409-0.336 0.742-0.748 0.742-0.001 0-0.001 0-0.002 0-0.411 0-0.744-0.332-0.746-0.742v-0c0-0.409 0.335-0.742 0.748-0.742s0.748 0.333 0.748 0.742zM4.141 23.323c-0.102 0.101-0.242 0.163-0.397 0.163s-0.294-0.062-0.396-0.162l0 0c-0.101-0.1-0.164-0.238-0.164-0.392s0.063-0.292 0.164-0.392l0-0 0.893-0.889 0.789 0.786-0.889 0.886zM7.122 26.786c-0.102 0.101-0.242 0.163-0.397 0.163s-0.295-0.062-0.397-0.163l0 0c-0.101-0.1-0.163-0.238-0.163-0.391s0.063-0.292 0.163-0.391l0-0 0.893-0.889 0.79 0.786-0.89 0.886zM10.351 23.569l-0.001 0.001-1.637 1.632-0.79-0.786 1.638-1.63c0.037-0.037 0.060-0.082 0.083-0.125 0.006-0.013 0.019-0.024 0.024-0.037 0.015-0.038 0.018-0.079 0.023-0.12 0.003-0.023 0.013-0.044 0.013-0.067 0-0.033-0.012-0.065-0.019-0.098-0.006-0.029-0.006-0.059-0.017-0.088-0.019-0.046-0.051-0.088-0.085-0.128-0.009-0.011-0.013-0.025-0.023-0.035l-0.001-0.002-1.49-1.484c-0.016-0.016-0.036-0.022-0.054-0.036-0.023-0.019-0.050-0.037-0.078-0.052l-0.003-0.001c-0.025-0.012-0.053-0.022-0.084-0.029l-0.003-0.001c-0.028-0.009-0.060-0.015-0.094-0.018l-0.002-0c-0.006-0-0.012-0-0.019-0-0.024 0-0.048 0.002-0.072 0.005l0.003-0c-0.036 0.003-0.069 0.010-0.1 0.019l0.003-0.001c-0.033 0.012-0.062 0.026-0.089 0.043l0.002-0.001c-0.019 0.010-0.039 0.014-0.057 0.026l-1.645 1.228-0.835-0.832 2.225-2.214 4.044 3.978-0.86 0.852zM16.676 17.060c-0.014-0.002-0.028 0.004-0.042 0.003-0.007-0-0.016-0.001-0.024-0.001-0.029 0-0.058 0.003-0.085 0.008l0.003-0c-0.065 0.010-0.122 0.032-0.173 0.065l0.002-0.001c-0.027 0.016-0.052 0.034-0.077 0.057-0.012 0.010-0.026 0.015-0.037 0.027l-4.358 4.773-4.014-3.949 2.627-2.614c0.089-0.090 0.145-0.213 0.145-0.35 0-0.274-0.222-0.495-0.495-0.495-0.001 0-0.001 0-0.002 0h0l-2.057 0.012 0.025-1.491 2.879 0.025c1.172 1.202 2.807 1.948 4.617 1.948 0.001 0 0.003 0 0.004 0h-0c0.406 0 0.801-0.042 1.187-0.113 0.037 0.030 0.074 0.060 0.121 0.079l2.234 0.89 0.141 0.703 0.166 0.821-2.785-0.396zM20.425 17.226l-0.29-1.445 1.341-1.002 0.352 0.465 0.527 0.7-1.929 1.281zM23.907 14.6l-0.777 0.728-0.864-1.147 0.771-0.591c0.144-0.111 0.325-0.156 0.503-0.133 0.179 0.025 0.338 0.119 0.445 0.263 0.201 0.271 0.167 0.648-0.079 0.879z"></path>
<path fill="#2e2f42" style="fill: var(--color2, #2e2f42)" d="M14.471 17.2l-1.988-1.979c-0.089-0.089-0.213-0.144-0.349-0.144s-0.26 0.055-0.349 0.144v0l-1.987 1.979c-0.090 0.090-0.145 0.214-0.145 0.351s0.055 0.261 0.145 0.351l-0-0 1.987 1.979c0.089 0.089 0.213 0.144 0.349 0.144s0.26-0.055 0.349-0.144l1.988-1.978c0.090-0.090 0.146-0.214 0.146-0.351s-0.056-0.261-0.146-0.351l-0-0zM12.135 18.832l-1.286-1.281 1.286-1.28 1.287 1.28-1.287 1.281z"></path>
<path fill="#2e2f42" style="fill: var(--color2, #2e2f42)" d="M17.775 4.704l-0.239 0.96c0.066 0.016 1.612 0.419 1.612 1.993h0.989c0-1.871-1.545-2.75-2.362-2.953z"></path>
<path fill="#2e2f42" style="fill: var(--color2, #2e2f42)" d="M20.138 8.646h-0.989v0.99h0.989v-0.99z"></path>
</symbol>
<symbol id="icon-facebook" viewBox="0 0 32 32">
<path fill="#f4f4fd" style="fill: var(--color4, #f4f4fd)" d="M21.329 5.313h2.921v-5.088c-0.504-0.069-2.237-0.225-4.256-0.225-4.212 0-7.097 2.649-7.097 7.519v4.481h-4.648v5.688h4.648v14.312h5.699v-14.311h4.46l0.708-5.688h-5.169v-3.919c0.001-1.644 0.444-2.769 2.735-2.769v0z"></path>
</symbol>
<symbol id="icon-instagram" viewBox="0 0 32 32">
<path fill="#f4f4fd" style="fill: var(--color4, #f4f4fd)" d="M31.969 9.408c-0.075-1.7-0.35-2.869-0.744-3.882-0.406-1.075-1.031-2.038-1.851-2.838-0.8-0.813-1.769-1.444-2.832-1.844-1.019-0.394-2.181-0.669-3.882-0.744-1.713-0.081-2.257-0.1-6.601-0.1s-4.888 0.019-6.595 0.094c-1.7 0.075-2.869 0.35-3.882 0.744-1.075 0.406-2.038 1.031-2.838 1.85-0.813 0.8-1.444 1.769-1.844 2.832-0.394 1.019-0.669 2.182-0.744 3.882-0.081 1.713-0.1 2.257-0.1 6.601s0.019 4.888 0.094 6.595c0.075 1.7 0.35 2.869 0.744 3.882 0.406 1.075 1.038 2.038 1.85 2.838 0.8 0.813 1.769 1.444 2.832 1.844 1.019 0.394 2.182 0.669 3.882 0.744 1.706 0.075 2.25 0.094 6.595 0.094s4.888-0.019 6.595-0.094c1.7-0.075 2.869-0.35 3.882-0.744 2.151-0.831 3.851-2.532 4.682-4.682 0.394-1.019 0.669-2.182 0.744-3.882 0.075-1.707 0.094-2.25 0.094-6.595s-0.006-4.888-0.081-6.595zM29.087 22.473c-0.069 1.563-0.331 2.407-0.55 2.969-0.538 1.394-1.644 2.5-3.038 3.038-0.563 0.219-1.413 0.481-2.969 0.55-1.688 0.075-2.194 0.094-6.464 0.094s-4.782-0.019-6.464-0.094c-1.563-0.069-2.407-0.331-2.969-0.55-0.694-0.256-1.325-0.663-1.838-1.194-0.531-0.519-0.938-1.144-1.194-1.838-0.219-0.563-0.481-1.413-0.55-2.969-0.075-1.688-0.094-2.194-0.094-6.464s0.019-4.782 0.094-6.464c0.069-1.563 0.331-2.407 0.55-2.969 0.256-0.694 0.663-1.325 1.2-1.838 0.519-0.531 1.144-0.938 1.838-1.194 0.563-0.219 1.413-0.481 2.969-0.55 1.688-0.075 2.194-0.094 6.464-0.094 4.276 0 4.782 0.019 6.464 0.094 1.563 0.069 2.407 0.331 2.969 0.55 0.694 0.256 1.325 0.662 1.838 1.194 0.531 0.519 0.938 1.144 1.194 1.838 0.219 0.563 0.481 1.413 0.55 2.969 0.075 1.688 0.094 2.194 0.094 6.464s-0.019 4.77-0.094 6.458z"></path>
<path fill="#f4f4fd" style="fill: var(--color4, #f4f4fd)" d="M16.059 7.783c-4.538 0-8.22 3.682-8.22 8.22s3.682 8.22 8.22 8.22c4.539 0 8.22-3.682 8.22-8.22s-3.682-8.22-8.22-8.22zM16.059 21.335c-2.944 0-5.332-2.388-5.332-5.332s2.388-5.332 5.332-5.332c2.945 0 5.332 2.388 5.332 5.332s-2.388 5.332-5.332 5.332v0z"></path>
<path fill="#f4f4fd" style="fill: var(--color4, #f4f4fd)" d="M26.524 7.458c0 1.060-0.859 1.919-1.919 1.919s-1.919-0.859-1.919-1.919c0-1.060 0.859-1.919 1.919-1.919s1.919 0.859 1.919 1.919v0z"></path>
</symbol>
<symbol id="icon-linkedin" viewBox="0 0 32 32">
<path fill="#f4f4fd" style="fill: var(--color4, #f4f4fd)" d="M31.992 32v-0.001h0.008v-11.736c0-5.741-1.236-10.164-7.948-10.164-3.227 0-5.392 1.771-6.276 3.449h-0.093v-2.913h-6.364v21.364h6.627v-10.579c0-2.785 0.528-5.479 3.977-5.479 3.399 0 3.449 3.179 3.449 5.657v10.401h6.62z"></path>
<path fill="#f4f4fd" style="fill: var(--color4, #f4f4fd)" d="M0.528 10.636h6.635v21.364h-6.635v-21.364z"></path>
<path fill="#f4f4fd" style="fill: var(--color4, #f4f4fd)" d="M3.843 0c-2.121 0-3.843 1.721-3.843 3.843s1.721 3.879 3.843 3.879c2.121 0 3.843-1.757 3.843-3.879-0.001-2.121-1.723-3.843-3.843-3.843v0z"></path>
</symbol>
<symbol id="icon-twitter" viewBox="0 0 32 32">
<path fill="#f4f4fd" style="fill: var(--color4, #f4f4fd)" d="M32 6.078c-1.19 0.522-2.458 0.868-3.78 1.036 1.36-0.812 2.398-2.088 2.886-3.626-1.268 0.756-2.668 1.29-4.16 1.588-1.204-1.282-2.92-2.076-4.792-2.076-3.632 0-6.556 2.948-6.556 6.562 0 0.52 0.044 1.020 0.152 1.496-5.454-0.266-10.28-2.88-13.522-6.862-0.566 0.982-0.898 2.106-0.898 3.316 0 2.272 1.17 4.286 2.914 5.452-1.054-0.020-2.088-0.326-2.964-0.808 0 0.020 0 0.046 0 0.072 0 3.188 2.274 5.836 5.256 6.446-0.534 0.146-1.116 0.216-1.72 0.216-0.42 0-0.844-0.024-1.242-0.112 0.85 2.598 3.262 4.508 6.13 4.57-2.232 1.746-5.066 2.798-8.134 2.798-0.538 0-1.054-0.024-1.57-0.090 2.906 1.874 6.35 2.944 10.064 2.944 12.072 0 18.672-10 18.672-18.668 0-0.29-0.010-0.57-0.024-0.848 1.302-0.924 2.396-2.078 3.288-3.406z"></path>
</symbol>
</defs>
</svg>
